<?xml version="1.0" standalone="no"?>
<!DOCTYPE svg PUBLIC "-//W3C//DTD SVG 20010904//EN"
 "http://www.w3.org/TR/2001/REC-SVG-20010904/DTD/svg10.dtd">
<svg version="1.0" xmlns="http://www.w3.org/2000/svg"
 width="512.000000pt" height="512.000000pt" viewBox="0 0 512.000000 512.000000"
 preserveAspectRatio="xMidYMid meet">

<g transform="translate(0.000000,512.000000) scale(0.100000,-0.100000)"
fill="#000000" stroke="none">
<path d="M2270 4834 c-803 -103 -1493 -622 -1815 -1366 -136 -316 -193 -619
-182 -982 9 -322 68 -579 196 -867 320 -713 983 -1213 1766 -1330 168 -25 460
-27 625 -4 617 87 1167 407 1525 890 177 238 295 469 370 723 154 526 122
1078 -90 1568 -328 758 -1040 1285 -1857 1373 -130 15 -408 12 -538 -5z m520
-314 c456 -57 861 -258 1181 -586 163 -168 261 -306 359 -509 309 -633 259
-1376 -130 -1959 -65 -97 -74 -106 -90 -94 -9 7 -48 39 -86 71 -296 251 -675
426 -1082 499 -111 20 -160 23 -382 22 -272 0 -350 -8 -555 -60 -308 -77 -591
-214 -845 -410 -52 -40 -108 -86 -124 -103 -17 -17 -33 -31 -37 -31 -17 0
-162 233 -218 350 -141 298 -198 574 -188 914 9 301 59 511 188 784 122 257
292 476 524 672 259 218 623 382 955 429 41 6 86 13 100 15 57 8 352 5 430 -4z"/>
<path d="M2396 3985 c-362 -75 -632 -331 -718 -682 -31 -128 -29 -304 5 -434
66 -254 242 -471 472 -586 218 -109 488 -124 717 -40 213 77 397 244 503 456
115 230 119 532 11 766 -117 253 -334 436 -601 506 -104 27 -293 34 -389 14z"/>
</g>
</svg>
