<?xml version="1.0" encoding="UTF-8"?>
<!DOCTYPE svg PUBLIC "-//W3C//DTD SVG 1.1//EN" "http://www.w3.org/Graphics/SVG/1.1/DTD/svg11.dtd">
<svg xmlns="http://www.w3.org/2000/svg" version="1.1" width="512px" height="512px" style="shape-rendering:geometricPrecision; text-rendering:geometricPrecision; image-rendering:optimizeQuality; fill-rule:evenodd; clip-rule:evenodd" xmlns:xlink="http://www.w3.org/1999/xlink">
<g><path style="opacity:0.992" fill="#000000" d="M 15.5,-0.5 C 133.5,-0.5 251.5,-0.5 369.5,-0.5C 378.766,3.34391 383.599,10.3439 384,20.5C 384.667,63.5 384.667,106.5 384,149.5C 381.472,165.009 372.306,171.842 356.5,170C 349.819,167.987 344.986,163.82 342,157.5C 340.518,119.228 340.018,80.8945 340.5,42.5C 284.166,42.3333 227.832,42.5 171.5,43C 195.5,50.3333 219.5,57.6667 243.5,65C 249.492,67.6587 253.325,72.1587 255,78.5C 256.488,194.137 256.988,309.803 256.5,425.5C 284.5,425.5 312.5,425.5 340.5,425.5C 340.333,388.165 340.5,350.832 341,313.5C 347.93,298.3 359.096,294.134 374.5,301C 378.491,303.989 381.324,307.822 383,312.5C 384.63,357.472 384.963,402.472 384,447.5C 383.301,458.864 377.467,466.031 366.5,469C 329.835,469.5 293.168,469.667 256.5,469.5C 257.042,479.64 256.209,489.64 254,499.5C 251.167,505.507 246.667,509.507 240.5,511.5C 235.833,511.5 231.167,511.5 226.5,511.5C 156.696,497.039 86.6959,482.872 16.5,469C 8.50176,466.831 2.83509,461.997 -0.5,454.5C -0.5,307.833 -0.5,161.167 -0.5,14.5C 2.23619,6.76476 7.56952,1.76476 15.5,-0.5 Z"/></g>
<g><path style="opacity:0.976" fill="#000000" d="M 511.5,227.5 C 511.5,231.833 511.5,236.167 511.5,240.5C 510.295,243.234 508.795,245.901 507,248.5C 484.833,270.667 462.667,292.833 440.5,315C 429.955,321.393 419.788,320.893 410,313.5C 403.553,304.585 402.887,295.252 408,285.5C 417.833,275.667 427.667,265.833 437.5,256C 395.833,255.667 354.167,255.333 312.5,255C 297.527,247.076 294.027,235.576 302,220.5C 305.269,217.117 309.103,214.617 313.5,213C 354.5,212.667 395.5,212.333 436.5,212C 427.667,203.167 418.833,194.333 410,185.5C 401.745,173.297 402.912,162.131 413.5,152C 423.252,146.887 432.585,147.553 441.5,154C 463,175.5 484.5,197 506,218.5C 508.374,221.263 510.208,224.263 511.5,227.5 Z"/></g>
</svg>
