<?xml version="1.0" standalone="no"?>
<!DOCTYPE svg PUBLIC "-//W3C//DTD SVG 20010904//EN"
 "http://www.w3.org/TR/2001/REC-SVG-20010904/DTD/svg10.dtd">
<svg version="1.0" xmlns="http://www.w3.org/2000/svg"
 width="512.000000pt" height="512.000000pt" viewBox="0 0 512.000000 512.000000"
 preserveAspectRatio="xMidYMid meet">

<g transform="translate(0.000000,512.000000) scale(0.100000,-0.100000)"
fill="#000000" stroke="none">
<path d="M1520 5102 c-19 -9 -45 -32 -57 -51 l-23 -34 0 -913 0 -914 1120 0
1120 0 0 914 0 913 -23 34 c-49 74 24 69 -1097 69 -937 0 -1007 -1 -1040 -18z
m1587 -493 c69 -33 100 -113 73 -186 -12 -32 -670 -697 -712 -719 -32 -17
-101 -18 -131 -3 -31 16 -376 359 -393 391 -20 38 -17 94 7 137 23 42 49 61
97 72 65 14 99 -5 230 -134 l122 -121 283 282 c321 321 330 327 424 281z"/>
<path d="M712 3810 c-20 -12 -41 -37 -51 -63 -10 -23 -92 -337 -182 -698
l-163 -656 18 -46 c10 -28 30 -56 49 -69 l32 -23 2134 -3 2133 -2 39 22 c38
21 79 84 79 121 0 31 -330 1339 -346 1369 -8 16 -29 38 -47 48 -29 18 -51 20
-230 20 l-197 0 2 -316 3 -316 39 -13 c64 -22 98 -64 104 -128 5 -64 -12 -105
-60 -139 l-33 -23 -1480 0 c-1411 0 -1482 1 -1508 18 -43 28 -67 75 -67 132 0
75 36 120 114 141 l41 11 3 316 2 317 -197 0 c-181 0 -201 -2 -231 -20z"/>
<path d="M320 1049 c0 -902 0 -924 20 -964 13 -26 34 -49 59 -63 l39 -22 2118
0 2118 0 42 21 c31 15 48 32 63 63 21 42 21 54 21 965 l0 922 -37 -8 c-50 -10
-4356 -10 -4405 0 l-38 8 0 -922z"/>
</g>
</svg>
